PathFileType	4	(X/Y/Z)	E:\3-PhD\Data\MocapData\ElaboratedData\009\pre\dynamicElaborations\RunL3\RunL3.trc
DataRate	CameraRate	NumFrames	NumMarkers	Units	OrigDataRate	DataStartFrame
200	200	4	54	mm	200	301
Frame#	Time	FHD			LBHD			RBHD			C7			T10			CLAV			LSHO			LUUPA			LMUPA			LDUPA			LLEP			LMEP			LRAD			LUL			LRFIN			RSHO			RUPA1			RMUPA			RDUPA			RLEP			RMEP			RRAD			RUL			RUFIN			RASI			USACR			LSACR			RSACR			LTHI1			LTHI2			LTHI3			LTHI4			LTIB1			LTIB2			LTIB3			LTIB4			LLMAL			LHEE			LMT1			LMT2			RTHI			RTHI2			RTHI3			RTHI4			RLFC			RTIB1			RTIB2			RTIB3			RTIB4			RLMAL			RHEE			RMT1			RMT2			RMT5		
		X1	Y1	Z1	X2	Y2	Z2	X3	Y3	Z3	X4	Y4	Z4	X5	Y5	Z5	X6	Y6	Z6	X7	Y7	Z7	X8	Y8	Z8	X9	Y9	Z9	X10	Y10	Z10	X11	Y11	Z11	X12	Y12	Z12	X13	Y13	Z13	X14	Y14	Z14	X15	Y15	Z15	X16	Y16	Z16	X17	Y17	Z17	X18	Y18	Z18	X19	Y19	Z19	X20	Y20	Z20	X21	Y21	Z21	X22	Y22	Z22	X23	Y23	Z23	X24	Y24	Z24	X25	Y25	Z25	X26	Y26	Z26	X27	Y27	Z27	X28	Y28	Z28	X29	Y29	Z29	X30	Y30	Z30	X31	Y31	Z31	X32	Y32	Z32	X33	Y33	Z33	X34	Y34	Z34	X35	Y35	Z35	X36	Y36	Z36	X37	Y37	Z37	X38	Y38	Z38	X39	Y39	Z39	X40	Y40	Z40	X41	Y41	Z41	X42	Y42	Z42	X43	Y43	Z43	X44	Y44	Z44	X45	Y45	Z45	X46	Y46	Z46	X47	Y47	Z47	X48	Y48	Z48	X49	Y49	Z49	X50	Y50	Z50	X51	Y51	Z51	X52	Y52	Z52	X53	Y53	Z53	X54	Y54	Z54	

323	1.610000	-155.326565	1434.160110	776.985385	-282.578428	1427.734324	626.468524	-301.031049	1418.742003	753.666134	-366.016765	1315.233057	676.743723	-568.710873	1024.402098	655.451189	-279.780473	1173.596207	689.867673	-276.829942	1265.457597	566.395539	-296.081349	1132.602089	424.501804	-257.226327	1105.714766	429.934017	-286.585562	1072.449075	389.726486	-278.294826	960.695265	348.207174	-300.444248	914.968566	408.131562	-106.007391	1047.026729	511.378751	-60.768125	997.362988	480.990722	-55.127251	1099.365347	499.271452	-331.397414	1251.443554	846.647773	-492.148272	1198.160262	923.381462	-504.132551	1151.293191	918.322938	-554.432545	1177.071979	939.354375	-681.072543	1123.470476	952.164252	-705.371879	1143.082199	887.344573	-693.360636	879.401622	864.204997	-749.517408	877.837440	914.162669	-668.067198	812.682340	895.602032	-437.243372	802.962793	721.331034	-606.024402	921.531356	639.727650	-606.782185	898.943348	604.155051	-611.866089	882.502028	660.589416	-459.858909	702.039411	328.399399	-420.722491	638.466814	288.206207	-375.082378	637.727740	301.679715	-445.445665	588.004388	264.865986	-448.527407	312.991551	163.586424	-518.021596	330.792619	112.654655	-488.991190	300.183135	124.312088	-531.114297	224.931897	119.240540	-651.884117	141.184079	51.567002	-745.379996	118.014391	69.182887	-537.096407	50.966733	104.506862	-531.617989	55.631683	58.107621	-380.847870	623.340248	805.676557	-319.984037	623.111483	828.041620	-301.327496	653.141757	831.361468	-260.625350	562.706298	810.963174	-166.610651	517.714337	807.712899	-82.885884	350.826114	697.711008	-156.508383	273.192963	669.127368	-108.983100	275.044181	668.602892	-84.183329	249.504020	621.907162	-142.102037	157.444349	584.545638	-182.425159	145.886234	497.509462	32.984542	137.945060	568.155598	17.617701	119.593832	600.525532	-37.159628	77.575891	618.380782	
324	1.615000	-131.662469	1438.368158	790.150213	-258.368569	1430.440202	639.393739	-277.163576	1422.443942	766.528479	-341.606502	1317.486455	688.861945	-542.134309	1025.900408	662.814114	-254.533743	1176.915810	703.546870	-250.592210	1267.803985	579.619463	-270.337603	1136.810783	435.637648	-231.415029	1109.819893	440.478597	-261.137257	1077.196886	400.028103	-252.911520	966.389827	356.809580	-275.237366	919.681705	416.103160	-80.786013	1050.082006	521.657802	-35.547674	1000.941066	490.604473	-30.087698	1102.731438	510.454750	-310.605434	1254.314723	859.424617	-473.511219	1203.472669	932.235231	-485.424153	1156.617978	928.438884	-536.379675	1183.294901	946.545077	-663.460217	1129.184649	957.110715	-685.474130	1148.136793	891.372265	-669.836541	885.257196	867.295487	-726.441684	882.560497	916.496702	-643.763893	818.859465	898.210339	-412.130286	804.550864	728.551281	-579.384254	923.957139	645.923972	-579.847723	901.673242	610.155496	-585.746907	884.721791	666.284978	-436.955319	703.968227	335.585640	-400.734407	638.563264	295.721678	-355.341673	635.565622	309.734052	-427.583772	589.244917	272.108467	-440.331249	314.642500	168.703127	-509.098232	334.210237	117.493296	-480.718379	302.984841	129.013154	-524.081930	228.556820	122.793854	-646.157831	147.895087	53.167127	-739.731243	128.246998	70.583374	-536.062347	50.011119	104.655230	-530.933272	55.643739	58.549642	-356.690835	624.492258	811.611608	-295.843080	624.002003	833.876101	-277.213654	653.979173	837.553391	-236.677662	563.523183	816.249360	-142.568283	517.670804	813.284864	-47.466353	351.280497	709.081375	-115.095853	268.937164	680.289206	-67.531290	273.189599	680.746152	-40.874115	248.504526	635.836669	-92.830119	152.498792	599.666109	-130.588874	137.529700	512.026854	83.870883	141.220538	586.005473	69.109750	122.348270	618.128684	16.172655	77.925249	635.921523	
325	1.620000	-108.019246	1442.688089	803.532574	-234.380423	1433.372063	652.685196	-253.344667	1426.286737	779.785328	-317.288053	1319.951839	701.295304	-515.509896	1027.606002	670.366898	-229.434077	1180.447207	717.414708	-224.527692	1270.364829	592.960788	-245.231728	1141.214045	446.972341	-206.246928	1114.089227	451.106819	-236.452231	1082.148585	410.478127	-228.467023	972.263650	365.615779	-250.990280	924.586887	424.245764	-55.956643	1052.801012	531.766951	-10.850247	1004.207586	499.800843	-5.407389	1105.720192	521.399704	-289.691801	1257.295121	872.350269	-454.522265	1208.852368	941.162123	-466.422684	1162.033844	938.498967	-517.906360	1189.522667	953.719674	-645.522165	1135.017284	962.212543	-665.152277	1153.200061	895.466714	-645.478391	891.061177	870.906082	-702.615149	887.260554	919.219675	-618.672427	825.050165	901.539349	-386.950308	806.233978	736.189540	-552.625521	926.583667	652.263925	-552.723899	904.620980	616.285947	-559.463441	887.139517	672.088261	-413.631242	706.186628	343.318564	-380.403164	638.959553	304.037793	-335.393592	633.741010	318.562341	-409.318091	590.945781	280.050336	-431.545059	316.894111	174.759673	-499.385597	338.150895	123.055840	-471.685314	306.348598	134.530641	-516.143360	232.722066	126.998051	-639.250857	155.068812	55.105303	-732.778788	139.192676	72.386052	-534.971212	48.988049	104.929068	-530.056717	55.691909	59.208300	-332.457976	625.391577	817.360653	-271.625504	624.433924	839.515202	-252.948721	654.271737	843.618191	-212.857489	563.705654	821.277018	-118.722192	516.787304	818.479651	-12.718239	351.513320	720.331743	-74.208371	264.776581	691.572280	-26.922317	271.493913	693.125537	1.606088	247.684364	649.938773	-44.327714	148.155719	615.162936	-79.511538	130.049842	527.074810	133.559181	144.631266	603.890688	119.403518	125.304538	635.834766	68.295387	78.729484	653.700364	
326	1.625000	-84.417741	1447.039350	817.109040	-210.601517	1436.464831	666.287223	-229.592855	1430.205395	793.377121	-293.063304	1322.589056	713.987908	-488.858783	1029.469155	678.079099	-204.512082	1184.115903	731.406664	-198.625902	1273.100626	606.386961	-220.664468	1145.772407	458.486249	-181.640757	1118.471074	461.836301	-212.426485	1087.260704	421.067836	-204.876438	978.265445	374.613418	-227.644606	929.643068	432.552860	-31.443820	1055.134416	541.682708	13.398180	1007.107720	508.554123	18.998208	1108.266726	532.059845	-268.645415	1260.297651	885.387087	-435.162164	1214.157338	950.164764	-447.103436	1167.395045	948.462234	-498.983450	1195.597763	960.904957	-627.234484	1140.840226	967.475955	-644.402546	1158.173703	899.652450	-620.370844	896.701927	875.073025	-678.127754	891.853042	922.381292	-592.911394	831.133161	905.653373	-361.676458	807.987860	744.215420	-525.761433	929.347827	658.754004	-525.432502	907.710226	622.559966	-533.013317	889.703213	678.023021	-389.917193	708.614670	351.559637	-359.726286	639.615995	313.091398	-315.235059	632.235230	328.119712	-390.626992	593.056940	288.616179	-422.086940	319.732773	181.671831	-488.842459	342.577071	129.293705	-461.830892	310.243501	140.808903	-507.226712	237.380789	131.829974	-631.060847	162.599352	57.426536	-724.407286	150.739236	74.718511	-533.796444	47.972470	105.342985	-528.911804	55.812055	60.076301	-308.119835	625.973026	822.948921	-247.306819	624.353440	844.990884	-228.504792	653.964281	849.563867	-189.123575	563.214947	826.092959	-94.990452	515.085746	823.317965	21.313321	351.500145	731.428150	-34.047491	260.758323	702.941359	12.686054	269.935345	705.650785	43.090256	246.995289	664.104775	3.174961	144.370377	630.856249	-29.465758	123.429745	542.475928	181.856064	148.053971	621.751700	168.278283	128.334373	653.568838	118.940417	79.860655	671.600039	
